
<svg version="1.1" xmlns="http://www.w3.org/2000/svg" xmlns:xlink="http://www.w3.org/1999/xlink" x="0px" y="0px"
	 viewBox="0 0 624.5 577.6" enable-background="new 0 0 624.5 577.6" xml:space="preserve">

<g id="lineaH">
	<line fill="none" stroke="#FFFFFF" stroke-width="4" stroke-miterlimit="10" x1="2.3" y1="524" x2="623.3" y2="524"/>
</g>
<g id="lineaV">
	<line fill="none" stroke="#FFFFFF" stroke-width="4" stroke-miterlimit="10" x1="2.3" y1="0" x2="2.3" y2="526"/>
</g>
<g id="adobeCSS-graph">
	<rect x="3.3" y="1" fill="#3498DB" stroke="#FFFFFF" stroke-width="2" stroke-miterlimit="10" width="620" height="40"/>
	<text transform="matrix(1 0 0 1 20.8334 30.1472)" fill="#FFFFFF" font-family="'Montserrat-Regular'" font-size="25.1565">Adobe CSS (Ps,AE,Ai)</text>
</g>
<g id="htmlCss-graph">
	<rect x="3.3" y="53" fill="#C17FD1" stroke="#FFFFFF" stroke-width="2" stroke-miterlimit="10" width="584" height="40"/>
	<text transform="matrix(1 0 0 1 20.8334 81.1472)" fill="#FFFFFF" font-family="'Montserrat-Regular'" font-size="25.1565">HTML5/CSS3</text>
</g>
<g id="java-graph">
	<rect x="3.3" y="105" fill="#2ECC71" stroke="#FFFFFF" stroke-width="2" stroke-miterlimit="10" width="378" height="40"/>
	<text transform="matrix(1 0 0 1 20.8334 133.1472)" fill="#FFFFFF" font-family="'Montserrat-Regular'" font-size="25.1565">JS/JQuery</text>
</g>
<g id="edicion-graph">
	<rect x="3.3" y="157" fill="#E67E22" stroke="#FFFFFF" stroke-width="2" stroke-miterlimit="10" width="620" height="40"/>
	<text transform="matrix(1 0 0 1 20.8334 185.1472)" fill="#FFFFFF" font-family="'Montserrat-Regular'" font-size="25.1565">Premiere/FCP</text>
</g>
<g id="cplusplus-graph">
	<rect x="3.3" y="209" fill="#7F8C8D" stroke="#FFFFFF" stroke-width="2" stroke-miterlimit="10" width="233" height="40"/>
	<text transform="matrix(1 0 0 1 20.8334 237.9998)" fill="#FFFFFF" font-family="'Montserrat-Regular'" font-size="25.1565">C#/C++</text>
</g>
<g id="3D-graph">
	<rect x="3.3" y="260" fill="#C0392B" stroke="#FFFFFF" stroke-width="2" stroke-miterlimit="10" width="396" height="42"/>
	<text transform="matrix(1 0 0 1 20.8334 290.1472)" fill="#FFFFFF" font-family="'Montserrat-Regular'" font-size="25.1565">3D (Maya, 3Ds Max, C4D)</text>
</g>
<g id="vue-graph">
	<rect x="3.3" y="312" fill="#8E44AD" stroke="#FFFFFF" stroke-width="2" stroke-miterlimit="10" width="396" height="42"/>
	<text transform="matrix(1 0 0 1 20.8334 342.1472)" fill="#FFFFFF" font-family="'Montserrat-Regular'" font-size="25.1565">Vue xStream</text>
</g>
<g id="unity-graph">
	<rect x="3.3" y="365" fill="#2980B9" stroke="#FFFFFF" stroke-width="2" stroke-miterlimit="10" width="352" height="40"/>
	<text transform="matrix(1 0 0 1 20.8334 392.9998)" fill="#FFFFFF" font-family="'Montserrat-Regular'" font-size="25.1565">Unity</text>
</g>
<g id="nuke-graph">
	<rect x="3.3" y="417" fill="#F39C12" stroke="#FFFFFF" stroke-width="2" stroke-miterlimit="10" width="233" height="40"/>
	<text transform="matrix(1 0 0 1 20.8334 445.9998)" fill="#FFFFFF" font-family="'Montserrat-Regular'" font-size="25.1565">Nuke</text>
</g>
<g id="tracking-graph">
	<rect x="3.3" y="469" fill="#34495E" stroke="#FFFFFF" stroke-width="2" stroke-miterlimit="10" width="415" height="40"/>
	<text transform="matrix(1 0 0 1 20.8334 497.1472)" fill="#FFFFFF" font-family="'Montserrat-Regular'" font-size="25.1565">Mocha/3DEqualizer</text>
</g>
</svg>
